<?xml version="1.0" standalone="no"?>
<!DOCTYPE svg PUBLIC "-//W3C//DTD SVG 1.1//EN" "http://www.w3.org/Graphics/SVG/1.1/DTD/svg11.dtd" >
<svg xmlns="http://www.w3.org/2000/svg" xmlns:xlink="http://www.w3.org/1999/xlink" version="1.1">
<metadata></metadata>
<defs>
<font id="sjyuemannirongregular" horiz-adv-x="1232" vert-adv-y="2048" >
<font-face units-per-em="2048" ascent="1640" descent="-408" />
<missing-glyph horiz-adv-x="624" />
<glyph horiz-adv-x="0" vert-adv-y="0" />
<glyph horiz-adv-x="682" />
<glyph unicode=" "  horiz-adv-x="624" />
<glyph unicode="&#x09;" horiz-adv-x="624" />
<glyph unicode="&#xa0;" horiz-adv-x="624" />
<glyph unicode="!" d="M560 1080q0 24 32 24t40 -24q24 -16 24 -128q-16 -32 -24 -136t-16 -168q0 -80 -8 -144t-24 -80q-16 -32 -24 -24t-16 40q-16 16 -16 304q16 296 32 336v0v0v0zM528 240q0 16 24 16t52 -28t28 -60q0 -64 -36 -104t-52 16q-48 128 -16 160v0v0v0z" />
<glyph unicode="&#x22;" d="M560 1520q24 0 24 -32q0 -16 -16 -80q-40 -80 -72 -240q-48 -144 -88 -184q-40 -32 -52 -24t12 40q8 8 40 168q80 320 120 336v0l32 16v0v0zM784 1480q8 24 56 24t48 -16t-32 -64l-80 -184q-48 -144 -76 -200t-60 -56q-8 0 -16 12t0 20l40 112q32 120 64 216t56 136v0v0 v0z" />
<glyph unicode="#" d="M712 848q-128 0 -160 -16q-16 -16 -48 -176l-40 -184q-8 -24 32 0l136 24q88 8 104 40l64 304v0l-88 8v0v0zM552 1312q24 8 44 -4t20 -36q0 -56 -24 -176l-24 -160q0 -8 128 -8l128 8l24 104q64 232 104 256l24 8q16 0 32 -16t16 -32l-16 -64q-40 -64 -64 -152l-40 -104 l40 8l120 8q64 8 72 0t8 -48q0 -24 -8 -36t-32 -12h-24q-64 0 -104 -8q-96 0 -96 -48l-48 -264l168 16l136 16q40 0 52 -12t-4 -44q-8 -24 -36 -36t-76 -12q-136 -16 -200 -28t-64 -28l-64 -264q-80 -384 -128 -384l-56 16q-16 16 -20 28t12 28q32 32 72 232q-16 -56 64 264 q16 72 12 84t-60 -4q-24 -8 -104 -20t-112 -92t-64 -200q-48 -184 -72 -216q-16 -32 -28 -36t-28 12t-16 40l16 88q16 48 28 92t28 76q32 64 32 128q8 40 8 56t-24 8q-88 -24 -144 -24q-96 0 -96 56q0 40 184 48l120 16q16 64 44 200t44 200q-8 0 -32 4t-88 4q-112 0 -148 8 t-60 48l-24 48l192 -16l192 -8l24 184q32 192 40 200v0v0v0z" />
<glyph unicode="$" d="M856 552q-16 0 -44 8t-60 8h-56v-208q0 -104 4 -160t20 -56q40 0 88 72q8 16 48 56t40 104q16 64 16 88q0 56 -56 88v0v0v0zM608 1072q0 48 -16 104q-40 0 -108 -72t-84 -120q-48 -80 -48 -120q0 -32 24 -96q32 -56 60 -76t124 -28h64v136q0 72 -8 144t-8 128v0v0v0z M592 1464q40 0 64 -40t24 -88q0 -40 4 -56t36 -16q40 0 116 -48t76 -72t-36 -60t-68 -52q-40 -8 -44 8t20 32q32 8 32 48q0 24 -28 48t-68 24t-24 -120v-272l24 -136h48q64 0 120 -32t80 -64q24 -48 24 -136t-24 -160q-48 -72 -112 -140t-104 -76q-24 0 -28 -16t-4 -40 q0 -8 -12 -36t-12 -52q-16 -16 -16 -72q0 -24 -28 -24t-44 24t-16 112v88h-88q-80 0 -116 20t-60 84q-8 24 -8 72q0 40 8 60t16 28q32 -32 56 -88q72 -104 160 -104q40 16 44 28t4 92v360h-72q-112 0 -188 80t-76 192q0 40 32 136q32 56 104 128t128 104q32 16 44 32t12 88 v112v0v0z" />
<glyph unicode="%" horiz-adv-x="2048" d="M808 1152q-16 0 -16 -104q0 -144 16 -160q16 -8 60 64t60 128q8 32 0 40t-48 16l-72 16v0v0zM776 1264q16 16 44 12t28 -20q0 -8 72 -40q120 -40 96 -112q-40 -96 -112 -204t-104 -108q-24 0 -56 48q-32 64 -32 208q0 96 24 120q8 8 16 20t8 28q0 32 16 48v0v0v0z M1240 1264q16 24 48 24q40 0 40 -48q0 -40 -40 -96q-32 -48 -68 -136t-52 -160q-40 -128 -108 -336t-124 -336l-56 -136q-72 -240 -160 -216q-24 0 -24 32t32 64q32 48 144 336t200 568q80 248 120 312q8 32 24 64t24 64v0v0v0zM1360 208q0 16 -8 16q-24 0 -88 -88 q-88 -136 -24 -160q24 0 72 104l48 128v0v0v0zM1296 288q32 40 56 40q32 0 48 -40q32 -48 32 -80q0 -48 -48 -160q-72 -208 -152 -208q-40 0 -64 64q-24 56 -48 64t-24 24q0 32 80 136l120 160v0v0v0z" />
<glyph unicode="&#x26;" horiz-adv-x="1752" d="M808 584q-32 -40 -100 -144t-100 -168l-32 -88q-8 -32 0 -40t40 -8q40 0 104 32q48 24 124 104t76 112t-56 112v0l-56 88v0v0zM816 1160q-56 8 -84 -24t-28 -96q0 -72 48 -184q56 -112 64 -112q16 0 60 104t44 144q0 72 -24 104l-32 48l-48 16v0v0zM680 1224q32 16 72 16 t120 -16q64 -24 104 -96q40 -64 40 -112q0 -64 -72 -200q-56 -96 -56 -152q0 -32 36 -100t52 -68q8 0 32 68t24 108q0 56 -24 64q-16 8 8 24t40 12t40 -36q16 -48 16 -56q0 -32 -32 -136l-40 -144l56 -64q40 -56 88 -80q40 -24 32 -80q0 -56 -16 -56q-24 0 -120 96 q-48 56 -72 72t-40 0q-24 -48 -108 -124t-132 -92t-88 -16q-112 0 -152 48q-24 24 -24 40q0 8 40 88q56 128 96 168q56 88 112 160q32 48 40 80t0 48q-48 64 -88 172t-40 164q0 160 56 200v0v0v0z" />
<glyph unicode="'" d="M672 1536q0 8 12 12t20 -4l48 -8q8 0 12 -12t-4 -20q0 -16 -8 -40t-8 -56q-16 -72 -32 -88q-24 -24 -72 -176q-56 -160 -80 -184q-16 -24 -20 -16t-4 48t44 212t92 332v0v0v0z" />
<glyph unicode="(" d="M592 1168q24 40 48 40t28 -24t-12 -48q-24 -24 -64 -100t-56 -140t-24 -72t-16 -96t-8 -128q0 -152 8 -192t64 -128q24 -56 112 -168q32 -48 36 -80t-20 -32q-48 0 -112 96q-112 144 -152 284t-24 324q16 120 76 264t116 200v0v0v0z" />
<glyph unicode=")" d="M584 1200q16 32 32 32t16 -32q0 -16 24 -16t64 -160t40 -248q8 -80 8 -208q0 -200 -44 -320t-140 -240q-120 -120 -144 -16q-32 32 16 56q96 24 164 176t68 336q0 176 -40 368t-80 224l16 48v0v0v0z" />
<glyph unicode="*" d="M608 1408q16 24 48 24t40 -24v-24q0 -72 -8 -112l-8 -104q32 16 100 60t84 68q40 32 64 28t24 -36q0 -24 -44 -72t-92 -80l-16 -16q0 -8 64 -40q80 -40 92 -56t-4 -64l-16 -48l-48 40q-104 80 -168 80q-24 0 -32 -16t8 -48q24 -32 24 -72q0 -56 -32 -96t-72 -32 q-16 8 -8 128v48q0 64 -8 64l-120 -64q-104 -72 -128 -48q-32 24 -32 32q0 32 72 64q88 32 144 72l64 40l-88 24q-48 24 -92 36t-68 20q-32 8 -52 20t-12 36l24 40h8q24 0 136 -32l136 -48l8 88q0 104 8 120v0v0v0z" />
<glyph unicode="+" horiz-adv-x="1448" d="M744 1080q32 32 48 16q16 0 24 -32t16 -112v-192q0 -32 64 -32l256 32l88 16v-56q-16 -40 -44 -48t-220 -24l-144 -16l16 -192q0 -112 -4 -176t-28 -112q-32 -56 -48 -56t-40 40q-16 24 -16 40t16 16q16 16 16 232q0 192 -16 192q0 16 -128 16q-96 0 -192 -16 q-48 0 -88 16t-40 40q0 48 264 48h200v360v0v0v0z" />
<glyph unicode="," d="M416 168q8 24 20 28t44 -4q64 -16 84 -44t4 -92q-32 -112 -96 -176t-120 -24q-16 16 -12 32t36 40q56 48 64 76t-16 76q-16 56 -8 88v0v0v0z" />
<glyph unicode="-" d="M848 704q104 32 120 28t0 -44q0 -48 -12 -60t-60 -12q-32 0 -68 -16t-68 -16q-64 -8 -168 -28t-136 -16t-32 20q-24 24 -24 40q0 40 176 48q72 8 272 56v0v0v0z" />
<glyph unicode="." horiz-adv-x="720" d="M136 136q48 0 48 -64q0 -40 -32 -64q-24 -24 -48 16q-64 64 -40 112h72v0v0z" />
<glyph unicode="/" d="M904 1128q8 0 24 12t32 12q24 0 24 -32q0 -24 -24 -64q-32 -16 -120 -176q-104 -200 -256 -416q-24 -40 -48 -76t-48 -76q-104 -144 -104 -160q-16 -56 -72 -56q-24 0 -24 32q0 48 56 112q80 144 288 456q0 48 72 128q72 104 112 208q32 72 88 96v0v0v0z" />
<glyph unicode="0" d="M344 64q40 -104 144 -96q96 16 148 64t108 128q160 240 136 640q0 144 -72 224t-160 80q-104 0 -160 -80q-80 -64 -112 -164t-96 -516l64 -280v0v0zM376 320q8 88 20 232t36 248q24 64 88 128l88 88q16 24 48 24q56 0 88 -56q40 -88 40 -136q24 -128 24 -208 q0 -208 -128 -424q-40 -72 -128 -136q-40 -24 -64 -24q-72 0 -80 72q-24 64 -24 112t-8 80v0v0z" />
<glyph unicode="1" d="M480 64q72 0 92 24t36 88q8 128 40 288t40 224l72 424q0 16 -48 64q-48 -40 -48 -48l-56 -432q-88 -312 -120 -472q-8 -56 -8 -160v0v0z" />
<glyph unicode="2" d="M64 1056q40 16 84 32t108 16l432 -48q128 -8 80 -176l-72 -176q-80 -192 -192 -312t-296 -288q-16 -8 -20 -32t-20 -40q24 -32 64 -32l208 104q104 56 320 152q32 0 96 16l96 24q64 24 64 72t-80 80q-40 0 -64 -8q-80 -32 -156 -64t-148 -64q56 96 216 344q56 104 88 224 q16 32 16 80q0 152 -144 160q-152 56 -480 88q-152 0 -200 -120v-32v0v0z" />
<glyph unicode="3" d="M296 1192q0 -24 -8 -32l112 -48q56 -8 136 -20t184 -44q96 -8 96 -96q0 -32 -32 -80q-16 -24 -80 -104t-144 -112q-64 -24 -116 -48t-92 -48q-16 0 -24 -16t-8 -24q32 -32 40 -24q40 0 128 24q128 48 232 48q32 0 120 -16q0 -32 4 -64t-4 -80q-64 -192 -296 -368 q-32 -24 -96 -32t-88 -8q8 0 8 -12t16 -20q48 -56 144 -24q184 64 352 336q80 160 56 272q0 48 -56 72q-64 24 -168 40l128 144q64 80 64 144q0 112 -120 160q-136 56 -296 68t-192 12v0v0z" />
<glyph unicode="4" d="M584 368q-80 -280 -112 -360q-8 -32 4 -60t44 -12q16 0 40 16t24 32l48 280q16 16 32 88t52 120t100 56q8 8 56 88q0 8 -24 24t-32 24l-120 -96v56q16 128 56 440q0 16 -24 64q-40 -24 -48 -48l-24 -72l-32 -288q-8 -152 -32 -188t-160 -92l-152 -48q16 40 32 72t24 64 q152 296 216 448q8 24 -16 72q-48 -32 -64 -40q-8 -24 -20 -56t-20 -64l-232 -480q-48 -80 32 -80q64 -16 128 0q72 16 224 80v-40v0v0z" />
<glyph unicode="5" d="M728 832l-48 -8q-56 -8 -32 96q40 136 48 232q-16 24 -32 24q-8 -8 -36 -32t-36 -32q-8 -24 0 -52t0 -52q-80 -312 -96 -352q-32 -80 -24 -104q16 -72 48 -120q64 -104 176 -104q-8 -40 -104 -140t-152 -116q-72 -32 -80 24l-48 32l-8 -20t0 -36q32 -96 104 -88 q48 8 88 24q152 88 296 280q48 64 48 88q0 40 -120 40q-136 0 -136 96v48l8 184q248 0 360 28t120 92l-344 -32v0v0z" />
<glyph unicode="6" d="M664 760l208 360l-8 56q-8 -8 -24 -8t-32 -8q-32 -16 -32 -40q-168 -240 -392 -768q-24 -56 -32 -140t-8 -116q0 -48 64 -76t112 -12q280 96 352 432v24q0 40 -32 64t-72 0q-56 -8 -256 -64l152 296v0v0zM792 472q8 -200 -152 -312l-104 -72q-24 -8 -56 -8q-40 0 -56 72 q0 144 92 216t276 104v0v0z" />
<glyph unicode="7" d="M616 64l32 128q16 48 40 136q24 80 44 164t44 164l96 336q24 32 4 48t-44 24q-40 0 -124 8t-132 16q-56 8 -112 36t-96 28q-8 0 -24 4t-40 20q0 -8 -8 -12t-8 -12q64 -72 148 -104t184 -44t172 -28l-64 -240l-192 -656l-16 -40q0 -40 64 -64l32 88v0v0z" />
<glyph unicode="8" d="M504 584q-40 -64 -84 -124t-76 -112t-32 -116v-32q0 -72 60 -124t124 -44q128 16 220 128t76 232q-16 104 -96 184q-8 8 -16 32t8 40q64 64 132 168t68 200q0 160 -232 192q-128 8 -216 -64q-96 -80 -120 -224q-8 -56 32 -104l84 -112t68 -88v-32v0v0zM472 792 q-56 80 -56 128q0 32 48 120q96 136 224 96q72 -24 100 -104t-4 -128q-56 -80 -184 -224q-8 0 -32 -24l-96 136v0v0zM592 552q112 -120 80 -248q-40 -144 -168 -176h-32q-32 0 -64 32t0 64q64 64 120 232q8 24 64 96v0v0z" />
<glyph unicode="9" d="M728 728q0 -144 -16 -216l-64 -440q0 -16 16 -36t32 -20q48 -8 48 48q0 208 40 384q32 152 64 464q0 16 4 56t-4 64q-56 168 -192 152q-168 -24 -272 -160t-120 -296q0 -56 44 -88t92 -16q40 8 328 104v0v0zM344 792q16 56 64 152q88 128 216 176q72 16 104 -16 q56 -56 16 -112q-160 -200 -304 -288q-40 -16 -56 -16t-36 24t-4 80v0v0z" />
<glyph unicode=":" d="M616 840q0 8 16 8t40 -16t24 -32t-32 -48q-16 -16 -28 -16t-28 8q-24 16 -32 60t16 28q16 0 24 8v0v0v0zM584 464q8 40 56 40t56 -32q40 -72 -40 -72q-88 0 -72 64v0v0v0z" />
<glyph unicode=";" d="M408 288q48 0 96 -88q16 -32 16 -48t-16 -16q-32 0 -72 32q-104 48 -56 104v0l32 16v0v0zM344 -48q8 8 56 8q72 0 80 -24q32 -40 -8 -164t-80 -124q-24 0 -28 12t-4 44q8 24 16 52t16 36q0 56 -32 56q-32 16 -40 44t24 60v0v0v0z" />
<glyph unicode="&#x3c;" horiz-adv-x="1448" d="M824 1000q64 80 88 92t48 -4q40 -24 0 -48q-8 -32 -144 -168t-240 -224q-40 -16 -56 -56l352 -248q32 -16 64 -36t64 -36q8 -24 20 -28t12 12q0 40 20 32t36 -48q40 -64 16 -88q-8 -24 -16 -32t-16 -8q-40 16 -88 56l-264 184l-200 136q-104 56 -104 88q0 16 120 136 l160 160l128 128v0v0v0z" />
<glyph unicode="=" horiz-adv-x="1432" d="M648 800q240 40 376 40q120 0 120 -24q0 -40 -52 -56t-212 -32q-256 0 -376 -40l-144 -8q-40 0 -72 8q-24 24 -24 40q0 56 112 56q160 0 272 16v0v0v0zM1176 512q48 0 24 -48q-32 -32 -84 -40t-188 -16l-248 -8q-64 -8 -176 -8q-64 -8 -144 -8q-120 0 -120 40 q0 32 104 44t352 28q168 0 284 8t124 8h40h32v0v0z" />
<glyph unicode="&#x3e;" horiz-adv-x="1440" d="M368 1064l16 16q16 0 160 -88q152 -104 424 -216q40 -16 56 -28t0 -44l-448 -496q-104 -88 -136 -104t-40 32q8 32 52 76t52 36q40 32 88 88q120 136 160 176q24 32 64 76t48 68l16 16t8 24q0 24 -152 96q-96 48 -196 104t-156 96q-16 32 -16 72v0v0v0z" />
<glyph unicode="?" d="M608 1152q96 16 88 16l72 -16q48 -32 72 -88t16 -112q-32 -152 -128 -280q-8 -40 -72 -160q-16 -72 -28 -88t-44 16q-40 16 -40 56q0 72 112 224q56 64 92 148t36 140q0 80 -200 56q-72 -32 -88 -96q-16 -48 -32 -64q-16 0 -32 40t-8 64q0 40 56 84t128 60v0v0v0z M536 152q0 16 12 12t20 -12q16 -16 72 -16q32 0 52 -4t20 -28q0 -40 -28 -68t-76 -28q-16 0 -40 24l-32 32q0 24 -8 52t8 36v0v0v0z" />
<glyph unicode="@" horiz-adv-x="2016" d="M1224 824q-48 24 -96 24q-88 0 -148 -92t-68 -252q0 -64 -8 -108t-8 -60q-8 -48 8 -48t144 128q96 96 128 144t96 216q8 8 -8 24t-40 24v0v0v0zM1112 1216q96 24 216 24q88 0 168 -16q64 -16 128 -68t88 -108q32 -64 32 -128v-176q0 -200 -128 -408q-48 -88 -96 -136 t-80 -32q-48 16 -96 108t-64 172q0 56 -16 104q-8 0 -56 -64q-32 -48 -144 -152t-168 -144q-48 -16 -64 0q-16 32 -16 104q0 104 24 228t64 212q88 192 216 192q64 0 136 -48q64 -40 76 -80t20 -224t40 -240q40 -64 72 -64t80 80q136 216 128 456q-8 152 -28 208t-92 96 q-56 32 -96 40t-176 0q-176 -8 -260 -48t-196 -152t-200 -280q-56 -120 -68 -164t-12 -172q0 -96 8 -144t40 -96q72 -112 252 -168t380 -40q160 16 168 24q16 16 48 8t32 -24l-8 -48q-8 -32 -60 -40t-172 -8q-64 -8 -152 -8q-96 0 -168 24q-464 128 -464 480q0 192 144 456 q80 144 224 296q72 72 136 108t160 60v0v0v0z" />
<glyph unicode="A" horiz-adv-x="1152" d="M720 1192q24 0 76 -128t108 -352q0 -104 48 -240q16 -56 28 -120t28 -112q0 -120 -56 -120q-24 0 -48 68t-16 100q0 104 -16 168q-8 16 -20 64t-20 56t-24 0q-208 -32 -320 -32q-56 0 -72 -12t-16 -44t-16 -64q-16 0 -16 -104q-40 -248 -88 -264h-32q0 64 16 168 q72 304 120 432q16 40 40 104t48 136q48 136 76 200t44 64q40 0 40 -40q0 -32 -64 -176q-88 -184 -120 -288l-8 -16q0 -16 112 -16q152 0 200 16q72 24 72 72q-16 88 -120 368l-32 96l48 16v0v0z" />
<glyph unicode="B" horiz-adv-x="1008" d="M320 1112q24 40 48 16q24 -8 24 -80q0 -56 -24 -200q-16 -80 -16 -152q0 -16 92 52t140 116q96 64 72 112q0 32 -20 48t-84 40q-48 16 -112 16h-24q0 8 32 40t56 40q0 -8 36 -16t68 -16q96 -32 112 -48q24 -24 24 -72q0 -96 -72 -184q-40 -24 -40 -40q0 -8 88 -24 q80 0 116 -40t36 -144q0 -88 -32 -152t-120 -152t-144 -120t-136 -32q-144 0 -192 -16q-16 -24 -24 -20t-24 36q0 8 -4 20t4 12q-16 40 -16 72q-24 40 -20 88t20 32h32v32q24 136 52 332t36 308q0 32 8 56t8 40v0v0zM752 680q-8 24 -72 24t-144 -24t-136 -72 q-56 -32 -68 -68t-28 -220q-8 -72 -4 -84t36 -28q48 -24 96 -24q56 0 136 40q88 56 208 232q24 48 24 104q0 72 -48 120v0v0z" />
<glyph unicode="C" horiz-adv-x="824" d="M600 1152q24 8 56 8t96 -32q32 -8 44 -16t12 -32q0 -16 -24 -48q0 -24 -12 -24t-36 8l-16 16q48 24 -16 48q-32 16 -48 16q-8 0 -72 -16q-56 -24 -144 -112t-88 -120t-16 -32q-16 -40 -16 -72q0 -80 -40 -120q-24 -56 -24 -112q0 -80 64 -184q24 -56 88 -104t128 -48 q24 0 84 32t84 64t36 20t12 -52q0 -32 -28 -64t-108 -72q-56 -24 -80 -24q-16 0 -88 24q-88 32 -140 80t-92 128q-40 96 -40 136q0 56 24 160q88 288 184 392q152 152 216 152v0v0z" />
<glyph unicode="D" horiz-adv-x="992" d="M520 1192q88 -24 184 -64t120 -72l48 -56q64 -64 64 -168q0 -152 -12 -204t-68 -164q-64 -120 -152 -200q-96 -80 -152 -100t-168 -36q-120 -16 -168 -48q-24 -32 -52 -32t-28 32q0 64 24 172t56 196q40 96 84 280t68 296q8 56 0 80t-32 0h-32q0 40 104 88h112v0v0z M656 1072q-48 16 -88 32t-64 16q-32 0 -40 -12t-8 -68q0 -72 -32 -136q-16 -32 -16 -88q0 -32 -24 -32q0 -56 -48 -168q-32 -152 -48 -168q-8 -24 -24 -92t-24 -124q0 -24 24 -28t72 -4q104 0 168 20t136 92q208 184 208 504q0 88 -44 144t-148 112v0v0z" />
<glyph unicode="E" horiz-adv-x="832" d="M584 1224q48 16 112 16h16q8 0 8 -8q0 -24 -40 -80q-48 -32 -144 -148t-96 -132l-32 -56q-8 -16 -20 -36t-20 -44h168h168q24 0 0 -40q-8 -32 -20 -40t-52 8h-168q-32 -8 -84 -20t-76 -36q-48 -64 -48 -88q-16 -64 -60 -164t-68 -132t-24 -48t24 -8q16 0 52 8t76 8 q56 16 240 40q64 16 136 16q80 0 112 -16q32 0 32 -40q0 -24 -20 -40t-44 -8q-96 24 -160 24q-56 0 -232 -40q-144 -24 -212 -28t-84 12q-8 8 48 148t96 204q8 16 8 56q8 0 16 24t16 40q32 32 32 104l40 56q56 48 88 120q56 104 112 176q40 56 56 104q0 16 -152 16 q-144 0 -176 32q-8 16 -4 24t36 16h152h192v0v0z" />
<glyph unicode="F" horiz-adv-x="792" d="M600 1224q104 24 144 24q56 0 64 -24v-8q0 -16 -36 -40t-100 -40q-72 -24 -168 -104t-104 -128l-16 -24q-8 0 -28 -28t-36 -44l-40 -80v-16q-16 0 -24 -12t-8 -28q0 -40 72 -16q40 8 196 20t236 12q56 0 0 -80q-40 -40 -80 -16q-16 16 -64 16l-160 -16q-72 0 -128 -8 t-72 -16q-24 -24 -48 -136t-24 -208q0 -128 -72 -160q-16 16 -16 72q0 80 32 240q80 416 200 544l48 64q0 8 32 36t48 52q48 32 64 52t-24 28h-56h-24q-56 0 -128 16t-80 24q-16 8 -24 24q0 16 88 8q56 0 100 -8t68 -8q120 0 168 16v0v0z" />
<glyph unicode="G" horiz-adv-x="992" d="M584 1232q48 24 56 24q16 0 36 -12t44 -28q40 -24 52 -40t12 -56q-8 -56 -24 -76t-40 -4q-16 16 -16 64q16 40 -24 64q-16 8 -40 8q-64 0 -104 -40q-24 0 -88 -64q-160 -144 -248 -440q-40 -136 -40 -208q0 -80 40 -160q24 -48 40 -56t56 -8q88 16 204 116t180 204 q48 72 48 104q0 40 -64 40q-72 0 -92 8t-20 48q0 24 60 32t156 0h120q16 0 20 -28t-4 -76q0 -32 -8 -116t-8 -220q0 -80 -40 -112q-24 -32 -32 -32t-8 24q0 48 8 88q8 48 8 152q0 80 -8 136t-16 24q-64 -184 -260 -344t-324 -128q-56 8 -96 88t-40 152t20 172t44 148 q0 16 56 144q40 96 112 200q168 192 272 208v0v0z" />
<glyph unicode="H" horiz-adv-x="832" d="M712 1208q16 16 48 16q0 -8 8 -228t-8 -260q-16 -72 -20 -284t4 -260q8 -32 8 -80q0 -32 -24 -56q-32 -8 -48 64t-16 280v304l-40 -24q-32 0 -76 -36t-84 -60q-16 0 -52 -8t-100 -8q-88 -8 -112 -20t-36 -64t-20 -156q-8 -48 -16 -64t-32 -16q-40 0 -40 48t56 288 q32 160 32 232q24 256 48 256t28 -36t4 -100q0 -184 -16 -216v-72h72q72 0 148 40t116 64l104 48q24 0 28 44t4 172q0 88 4 132t28 60v0v0z" />
<glyph unicode="I" horiz-adv-x="424" d="M320 1240q32 24 72 24t40 -24t-16 -44t-40 -20q-16 0 -40 -20t-16 -36l-8 -88q0 -24 -8 -72t-8 -120q0 -64 -4 -92t-4 -36q-16 -40 -16 -88q0 -32 -8 -84t-8 -108q-8 -120 -8 -172t8 -52q16 0 24 8t24 8q16 16 52 12t44 -28v-32q-8 -24 -20 -36t-60 -12h-112 q-24 -16 -84 -20t-84 4l-8 16q0 24 24 44t40 20q40 0 56 32t24 136q32 152 44 308t20 212q0 144 24 216q8 24 8 56q0 8 -20 12t-68 12q-24 0 -56 24q-16 16 -24 16q-16 0 -24 8t8 8q16 8 128 8h104v0v0z" />
<glyph unicode="J" horiz-adv-x="656" d="M544 1208q56 16 76 20t20 -20v-8q0 -24 -28 -52t-68 -36q-16 -8 -32 -8t0 8q-24 0 -24 -32l16 -144q24 -152 24 -240q0 -80 -8 -120q0 -16 -4 -52t4 -60q0 -56 -8 -96t-16 -96q-48 -128 -56 -168q-32 -32 -52 -40t-84 0h-48q-80 0 -88 8q-24 16 -52 68t-20 76q8 32 20 32 t12 -24q8 -40 56 -72t96 -32q40 0 84 44t36 84q0 32 24 56q24 72 24 240q0 80 -16 352q8 40 4 108t4 76q-8 16 -24 16h-56q-24 0 -76 8t-52 16l-8 8q0 8 120 40q176 24 200 40v0v0z" />
<glyph unicode="K" horiz-adv-x="1040" d="M416 1240q0 16 32 16t32 -32t-32 -88q-8 -48 -36 -136t-44 -200l-8 -16q0 -8 88 72q48 32 84 52t52 36q40 40 136 80q72 64 152 64q24 0 32 -24t-16 -24t-152 -76t-256 -164l-112 -80l64 -56q56 -48 112 -108t56 -68q24 -24 104 -96t216 -168q40 -40 56 -68t8 -44 q-24 -32 -40 -32q-40 0 -72 56l-168 152q-40 32 -92 84l-76 76q-176 200 -208 192q-8 0 -36 -104t-60 -192l-32 -144q-16 -16 -16 -64q-40 -80 -88 -64q-8 8 -8 24q0 32 24 88q16 40 28 92t20 92q24 40 44 96t28 80q0 72 32 120q0 64 32 144q8 24 36 104t36 152 q16 88 48 176v0v0z" />
<glyph unicode="L" horiz-adv-x="816" d="M328 1272q0 8 32 8q16 0 36 -20t20 -36q0 24 -28 -76t-60 -228q0 -88 -48 -256q-48 -152 -76 -304t-12 -168q0 -16 368 -16q128 0 128 -16v-32q-8 -16 -48 -20t-112 -4q-368 0 -384 -16q-32 0 -56 16q-40 32 -16 56q16 0 28 28t12 52q8 96 36 192t44 184q72 288 104 488 l32 168v0v0z" />
<glyph unicode="M" horiz-adv-x="1224" d="M304 1064q16 72 40 88t24 -40q0 -16 48 -64q64 -104 64 -136q0 -8 32 -120q8 -32 24 -112t32 -200l24 -208l32 88q40 72 80 248q56 184 144 372t112 188q32 0 52 -92t52 -348q8 -120 40 -260t48 -156t16 -48t-16 -56q0 -24 -8 -24t-24 24t-52 172t-60 300q-16 88 -36 220 t-36 132q-16 8 -88 -156t-104 -284q-40 -176 -136 -472q-16 -40 -24 -40q-16 0 -32 96q0 16 -16 60t-16 76q0 80 -8 112q0 16 -8 48t-8 72q-64 320 -96 384l-24 48t-24 32q-16 0 -88 -264q-48 -144 -72 -288q0 -16 -8 -36t-16 -44q-16 -32 -16 -64q0 -40 -16 -72 q-8 -24 -20 -44t-12 -36q0 -56 -8 -72q-16 -8 -28 -8t-12 8q-8 8 -8 32q0 72 48 208q72 256 96 384q24 80 40 132t16 68q16 16 16 48l40 104v0v0z" />
<glyph unicode="N" horiz-adv-x="1072" d="M936 1128q16 24 36 24t36 -24q24 -32 16 -56t-32 -24q-40 0 -96 -240q-216 -560 -280 -656q-32 -48 -68 12t-84 244q-40 168 -72 268t-64 148q-16 48 -28 60t-36 -4q-24 -96 -56 -288t-40 -272t-32 -140t-40 -60q-24 0 -24 64q0 80 40 344q40 136 72 284t40 180 q24 120 56 120q24 0 40 -64q0 -56 40 -136q40 -56 84 -148t52 -172l96 -336q32 56 92 192t100 248l48 128q8 32 48 140t56 164v0v0z" />
<glyph unicode="O" horiz-adv-x="992" d="M368 1144q40 32 136 32q112 0 184 -32q56 -8 80 -28t48 -68q40 -48 48 -88t8 -136q0 -296 -108 -476t-284 -180q-72 0 -168 40q-192 112 -168 336q0 200 24 296t96 176q32 48 72 80q0 16 32 48v0v0zM720 1064q-64 32 -168 32l-104 16l-80 -96q-72 -72 -88 -108t-32 -116 q-24 -168 -24 -248t20 -132t68 -92q96 -88 256 -64q64 24 124 112t92 224q32 160 32 224q0 176 -96 248v0v0z" />
<glyph unicode="P" horiz-adv-x="832" d="M352 1128q152 0 232 -20t136 -84q56 -56 56 -112q0 -80 -72 -168q-48 -88 -120 -172t-112 -100q-40 -8 -112 -16t-104 0q-40 16 -72 16q0 -8 -8 -40t-8 -80q0 -80 -32 -112q0 -8 -8 -60t-8 -108q0 -144 -72 -144v128q112 592 136 672q32 128 32 200q0 24 12 64t12 72 l16 48l96 16v0v0zM552 1024q-32 16 -96 16q-96 0 -136 -64q-32 -32 -32 -104q0 -32 -8 -48t-8 -32q-8 -8 -16 -52t-16 -84q0 -16 -12 -40t-12 -40v-16q0 -40 104 -40q96 0 132 20t100 100q128 176 128 264t-128 120v0v0z" />
<glyph unicode="Q" horiz-adv-x="976" d="M968 168q0 -24 -16 -56t-40 -48t-44 4t-4 44l8 8q0 24 -88 88l-112 104l-72 -104q-96 -104 -168 -104q-40 0 -112 24q-120 64 -168 152q-40 120 -40 192q0 200 108 376t268 272q88 56 168 56q112 0 176 -128q40 -80 40 -200q0 -176 -88 -352q-56 -80 -56 -120l240 -200 v-8v0v0zM656 432q16 0 128 232q24 88 24 176q0 112 -40 192q-32 72 -56 72q-96 24 -96 -16q0 -16 40 -16h40q-24 -24 -96 -24q-8 8 -32 8q-96 0 -184 -104q-56 -64 -104 -136t-48 -104t-24 -32q-24 -24 -24 -152q0 -120 24 -184q32 -48 92 -96t116 -56h24q64 0 144 120 l32 48l-64 56q-48 48 -84 116t-20 84q24 -8 72 -48t96 -88l40 -48v0v0z" />
<glyph unicode="R" horiz-adv-x="968" d="M504 1152q16 8 56 8q120 0 176 -40q48 -48 64 -88q32 -96 -48 -220t-216 -196l-104 -32l168 -136q288 -240 304 -240q56 0 0 -80l-32 -32l-48 48q-32 24 -72 64t-96 88q-48 32 -108 80t-84 56q-48 48 -120 88t-80 24q-16 -16 -40 -144t-24 -192q0 -96 -36 -128t-52 48 q0 80 72 456l64 232q0 48 16 120l32 96q40 136 104 88q8 -8 16 -8t16 8q32 32 72 32v0v0zM704 1048q-16 16 -64 32t-72 8q-8 0 -24 -8t-40 -8q-16 0 -40 -24q0 -16 -16 -16q-24 0 -76 -116t-76 -204q-8 -32 0 -56t24 -24q24 -16 124 28t156 92q56 40 88 108t32 124 q0 48 -16 64v0v0z" />
<glyph unicode="S" horiz-adv-x="840" d="M464 1192q40 8 104 8q144 0 120 -56q0 -24 -32 -28t-104 -4q-224 0 -224 -56q96 -104 176 -216q160 -176 216 -272q32 -56 32 -88q0 -48 -8 -80q-16 -56 -44 -92t-76 -92q-96 -112 -152 -112q-48 -24 -96 -24q-96 0 -184 72q-48 32 -64 52t-8 44q0 48 20 56t36 -32 q16 -48 80 -76t136 -28q96 0 208 120q48 64 64 152l8 32q0 24 -48 96q-16 40 -88 120t-104 120q-192 216 -192 280q0 32 68 60t156 44v0v0z" />
<glyph unicode="T" horiz-adv-x="912" d="M136 1112q0 16 264 16q256 0 320 -16h80q32 32 56 12t8 -44t-64 -40t-80 8q-48 16 -120 16t-72 -16q0 -104 -16 -184l-24 -200l-40 -336q0 -16 -8 -52t-8 -84q-16 -88 -32 -116t-56 -20q-8 0 -8 32l24 224q16 64 56 416q48 232 48 288q16 0 16 32q0 8 -44 12t-140 4 q-200 0 -232 16l-4 4l-4 4q0 16 80 24v0v0z" />
<glyph unicode="U" horiz-adv-x="944" d="M160 992q40 112 56 112t32 -16q8 -8 8 -32l-24 -96l-72 -304q-8 -56 -8 -128q0 -80 48 -160q16 -80 48 -112t96 -32q120 0 156 12t100 68q112 112 184 368q24 88 24 152q0 80 -8 136q0 40 12 76t20 36q32 0 44 -100t-4 -180q-8 -96 -60 -244t-92 -228 q-120 -168 -320 -168q-40 0 -136 16q-64 16 -80 28t-56 92q-24 56 -36 104t-12 128q0 112 16 208t64 264v0v0z" />
<glyph unicode="V" horiz-adv-x="896" d="M168 1088q-8 16 0 24t16 -8q16 0 24 -8t24 -8t52 -84t52 -148q0 -24 8 -76t8 -148q0 -176 16 -296l72 128q56 136 196 380t156 244h48q16 -16 -32 -64q-64 -72 -192 -320t-192 -440q-64 -152 -88 -152q-32 0 -32 40q-16 152 -16 312q0 240 -28 376t-92 248v0v0z" />
<glyph unicode="W" horiz-adv-x="1312" d="M1208 1072q8 -16 8 -40q0 -40 -72 -192l-64 -168q-16 -16 -72 -136q-16 -16 -48 -136q-80 -232 -104 -232q-40 0 -64 88q0 8 -48 400q-16 104 -52 220t-52 116q-8 0 -108 -192t-164 -328q-56 -152 -116 -252t-84 -100l-8 -8q-8 0 -8 104q0 168 16 224q0 40 8 132t8 236 t16 264q0 16 12 8t28 -8q8 -16 8 -184q0 -336 -32 -520v-48q24 24 56 72t48 96q0 24 88 168q88 168 128 288q96 168 136 168q32 0 32 -40q0 -32 40 -112q40 -64 64 -200q16 -232 28 -320t20 -88l32 72q56 112 72 168q16 48 48 96q16 80 48 152q40 40 64 104t24 96 q8 64 24 68t40 -36v0v0z" />
<glyph unicode="X" horiz-adv-x="936" d="M800 1064q32 40 56 44t8 -20t-16 -56q8 -24 -104 -184t-160 -200q-32 -24 -32 -32t32 -32q16 -40 48 -72q48 -96 168 -216q24 -24 32 -52t0 -36q-24 -120 -216 184l-104 136q-16 0 -68 -60t-116 -140q-96 -96 -184 -200q-32 0 -32 32q-16 16 -16 32t96 120 q256 288 256 304l-168 200q-56 48 -100 124t-20 76q56 0 216 -200q48 -48 88 -92t48 -44l136 168q56 88 96 140t56 76v0v0z" />
<glyph unicode="Y" horiz-adv-x="784" d="M696 1040q8 16 20 20t28 -4q8 -8 8 -24q0 -32 -160 -168q-48 -40 -88 -76t-56 -56t-8 -36q0 -40 -8 -108t-24 -116q-16 -8 -16 -48l-40 -160q-32 -80 -48 -160q-16 -40 -24 -88t-8 -80q0 -48 -8 -56t-56 -8q-8 0 -8 24q0 56 40 208q8 64 24 112t24 96q56 168 56 256 l16 56h-56q-48 0 -52 20t36 36l32 32l-80 88q-72 88 -112 152t-24 72q0 8 16 8q24 0 72 -36t80 -92q24 -40 60 -76t44 -36h8q24 0 176 120q24 32 76 76t60 52v0v0z" />
<glyph unicode="Z" horiz-adv-x="1008" d="M216 1064q8 16 16 16t8 -16q8 -24 68 -28t188 -4l168 8q64 0 96 -8t32 -32q0 -16 -48 -80q-16 -8 -104 -128l-152 -184q-56 -64 -128 -176t-88 -120q-8 -32 -56 -56q0 -16 384 -16q408 0 408 -16q24 0 0 -24q-32 -32 -440 -32q-440 0 -464 -16q-40 -16 -40 16l-8 16 q0 16 56 72q120 120 296 368l192 232q40 40 60 80t4 40h-208q-112 0 -164 4t-60 28q-16 8 -16 56v0v0z" />
<glyph unicode="[" d="M392 1192q8 32 208 32t200 -32q0 -24 -52 -48t-92 -24q-72 0 -92 -16t-24 -140t-4 -340v-464h320l-16 -48q-32 -32 -76 -40t-140 -16h-160l-16 536q0 296 -4 416t-36 136q-16 16 -16 48v0v0v0z" />
<glyph unicode="\" d="M312 1144q16 16 32 16q48 0 240 -400q168 -344 248 -488q64 -80 64 -120q0 -24 -24 -64q-8 -8 -24 -8t-48 40q-8 16 -68 112t-268 544q-80 160 -116 244t-36 124v0v0v0z" />
<glyph unicode="]" d="M448 1200q32 32 384 16q8 0 8 -16q0 -64 -40 -144q-8 -8 -8 -96q0 -176 8 -344l8 -296q0 -176 -32 -220t-136 -60q-56 0 -88 4t-72 36l-32 56q0 16 120 16q80 0 128 32q8 8 12 128t4 408q-8 96 -8 264q0 120 8 128q0 16 -44 24t-60 8q-192 0 -160 56v0v0v0z" />
<glyph unicode="^" horiz-adv-x="1240" d="M616 856q56 40 72 40t16 -40q0 -64 200 -224l48 -40l-32 -32q-16 -40 -40 -40q-8 32 -120 132t-128 100q-8 0 -40 -56t-48 -88q-88 -160 -104 -176q0 -16 -16 -32q0 -32 -28 -32t-28 32q-24 32 80 220t168 236v0v0v0z" />
<glyph unicode="_" d="M768 -8q104 32 120 28t0 -44q0 -48 -12 -60t-60 -12q-32 0 -68 -16t-68 -16q-64 -8 -168 -28t-136 -16t-32 20q-24 24 -24 40q0 40 176 48q72 8 272 56v0v0v0z" />
<glyph unicode="`" horiz-adv-x="544" d="M408 1104l-664 728h528l528 -728h-392z" />
<glyph unicode="a" horiz-adv-x="864" d="M720 328q32 -24 36 -44t-20 -36q-32 -40 -84 64t-52 200q0 40 -16 48t-24 -32q0 -24 -28 -80l-44 -88q-24 -16 -24 -32q-8 -32 -56 -88t-72 -64q-32 -24 -80 -24q-96 0 -120 96q-8 16 -8 72q0 80 44 192t124 208q16 24 48 60t52 44t44 8q56 0 88 -20t32 -60q0 -8 -8 -8 t-36 12t-68 12q-32 0 -88 -72t-104 -168q-40 -80 -72 -112v-72q-8 -64 16 -80q24 -32 56 -32t96 48q64 64 144 224t88 248q24 64 48 64q16 0 20 -44t4 -140q0 -112 20 -196t44 -108v0v0z" />
<glyph unicode="b" horiz-adv-x="728" d="M368 1112q24 24 44 28t20 -12q0 -8 -8 -36t-8 -76q-32 -144 -32 -192l-16 -64h96q168 0 168 -184q0 -64 -32 -160t-80 -160q-40 -56 -108 -88t-132 -32q-136 0 -112 104q0 24 8 56t8 64q0 48 32 112q48 128 104 440q8 64 28 124t20 76v0v0zM552 640q-16 32 -32 44t-56 12 q-120 0 -144 -224q-24 -104 -36 -148t-36 -68q-48 -24 0 -48q8 -8 32 -8q80 0 136 40q64 56 112 196t24 204v0v0z" />
<glyph unicode="c" horiz-adv-x="680" d="M328 728q64 48 152 48q48 0 84 -16t36 -48t-40 -32q-48 0 -48 -16q-16 -16 -16 16q8 24 -4 28t-44 4q-72 -16 -108 -36t-92 -92q-56 -112 -56 -168t56 -104q24 -40 44 -48t52 0q56 0 152 80q24 16 32 0t0 -48q-72 -112 -224 -112q-64 0 -96 24q-88 72 -88 176 q0 112 72 216q32 40 68 76t68 52v0v0z" />
<glyph unicode="d" horiz-adv-x="752" d="M640 1088q40 64 48 64t8 -24q0 -48 -32 -136q-24 -168 -56 -256q-24 -96 -24 -184q-16 -16 -16 -80q0 -40 -16 -72q-16 0 -16 -96q24 -120 -16 -120h-16q-24 0 -24 120v80q-16 0 -48 -64q-8 -32 -40 -68t-48 -52q-48 -64 -112 -64q-48 0 -96 64q-40 56 -40 120 q0 168 176 368q96 112 152 136t96 -16q32 -48 32 -24l32 136q16 40 32 100t24 68v0v0zM520 736q-24 24 -48 24q-48 0 -168 -120q-48 -72 -152 -272q0 -32 8 -60t32 -60l48 -32q48 0 148 144t132 256q24 56 24 76t-24 44v0v0z" />
<glyph unicode="e" horiz-adv-x="680" d="M312 800q56 40 104 40q72 0 128 -72q56 -56 56 -88q0 -40 -72 -88q-56 -24 -160 -56t-160 -32q-64 0 -64 -56l-8 -48q0 -40 56 -112q40 -48 80 -48q64 0 160 72q48 40 60 36t4 -44q-40 -64 -100 -100t-132 -36q-32 0 -60 8t-60 32q-40 72 -72 96q-8 40 12 152t44 168 q104 136 184 176v0v0zM496 752q-16 8 -44 28t-44 20q-24 0 -92 -60t-108 -100q0 -48 -32 -48v-8q24 -40 188 16t164 96l-32 56v0v0z" />
<glyph unicode="f" horiz-adv-x="656" d="M456 992q104 24 104 0q16 -8 -12 -24t-52 -16q-32 0 -76 -24t-44 -40q16 0 4 -24l-20 -40q-24 -48 -24 -64t-12 -36t-12 -36q-16 -16 -16 -48q48 -24 88 -8q56 0 80 24q0 8 24 8q40 0 80 -12t48 -20q16 -16 -24 -28t-88 -12q-72 0 -136 -32q-56 -8 -64 -20t-24 -68 q0 -80 -32 -176q0 -32 -8 -80t-8 -128q0 -264 -48 -264q-24 0 -48 32t-8 40q16 64 16 144q0 56 12 116t12 68q32 144 32 216l16 104l-72 -16q-144 -24 -144 0q0 32 64 32q120 32 140 48t44 128q40 216 208 256v0v0z" />
<glyph unicode="g" horiz-adv-x="624" d="M304 832q24 32 100 32t76 -16t24 -16l24 8q16 0 16 -24l-8 -64q-8 -40 -56 -488q-24 -416 -152 -520q-32 -16 -56 -16q-56 0 -104 40t-56 112q-8 48 4 56t20 -40q24 -40 68 -72t76 -32q24 16 52 68t44 132q32 144 40 320l16 104l-56 -72q-8 -8 -24 -28t-32 -24t-40 4 q-40 0 -64 16t-48 56q-56 56 -56 144q0 24 16 88q16 48 72 124t104 108v0v0zM448 784q-24 0 -44 8t-28 8h-8q-24 0 -80 -56t-72 -112q-32 -64 -32 -120t40 -96q48 -48 72 -48q32 0 88 116t80 236q8 24 8 40t-24 24v0v0z" />
<glyph unicode="h" horiz-adv-x="704" d="M280 992q8 80 16 88t40 -16q16 -24 0 -204t-40 -244q-16 -40 -16 -72q0 -24 56 32q64 56 120 56q64 0 32 -104q-16 -64 -16 -96q0 -72 40 -136q8 -16 20 -36t16 -16t12 20q8 40 24 40t16 -40q0 -64 -40 -96t-72 8q-88 104 -88 256q0 32 16 96l16 48l-48 -32 q-96 -56 -200 -264q-64 -136 -72 -136q-24 0 -12 68t52 196q104 264 128 584v0v0z" />
<glyph unicode="i" horiz-adv-x="344" d="M40 1080q0 24 16 24q32 0 88 -56q64 -48 64 -80q-8 -8 -8 -20t-8 -12t-56 48q-64 40 -96 96v0v0zM240 800q8 0 8 -16q0 -32 -24 -104q-8 -24 -28 -76t-20 -76q0 -40 -32 -120q-16 -160 0 -160q16 24 44 84t44 132q8 32 24 32t16 -24q0 -32 -16 -72q-88 -304 -152 -256 l-8 120q-8 24 -8 72q0 96 48 288l8 40l-40 -40q-80 -64 -112 -56q-16 16 -16 36t16 20t72 52t80 68q8 8 28 24t28 16l40 16v0v0z" />
<glyph unicode="j" horiz-adv-x="528" d="M304 904q-16 0 -32 16t-16 48t16 56t32 24q56 0 56 -80q0 -64 -56 -64v0v0zM280 824q24 24 56 28t48 -12q0 -32 -16 -56q0 -152 -16 -320q0 -112 -20 -300t-20 -212q-8 -64 -52 -84t-140 -4q-104 24 -136 104q-24 80 48 8q144 -88 176 -24q32 56 44 164t12 388 q8 112 8 156t-24 44q-56 -8 -104 -8t-48 8q8 8 28 24t60 24q40 16 68 36t28 36v0v0z" />
<glyph unicode="k" horiz-adv-x="728" d="M288 1168q8 32 16 40t16 -8q16 -16 16 -48l-16 -96q0 -48 -8 -108t-8 -108q-32 -112 -32 -184q0 -40 4 -52t28 -4q8 0 52 48t92 88q72 80 128 104t56 -16q0 -16 -112 -120t-184 -168l-16 -16q0 -16 128 -120q88 -88 168 -180t80 -108q0 -24 -40 -48q-24 -24 -56 16 q-88 128 -212 248t-140 104q-16 -24 -28 -88t4 -64q24 16 24 40q0 8 4 20t4 -4l8 -16q0 -48 -40 -152q-32 -32 -32 -88q-40 -56 -56 -56q-24 0 -24 32t8 68t16 76l40 200q0 56 32 216q40 224 40 272q0 96 8 156t32 124v0v0z" />
<glyph unicode="l" horiz-adv-x="408" d="M232 1248q24 24 44 12t12 -52q-56 -216 -56 -240q0 -48 -8 -88t-24 -64v-32q0 -32 -16 -64q0 -32 -8 -88t-8 -152q0 -184 -16 -200q0 -32 48 -64q32 -24 88 -24q48 24 80 24l48 16l-48 -56q-48 -48 -128 -48q-24 0 -88 16q-120 56 -72 152q0 24 12 88t12 112 q0 112 32 256q16 64 28 132t20 116q8 56 8 112t12 88t28 48v0v0z" />
<glyph unicode="m" horiz-adv-x="1040" d="M824 776h16q16 -32 16 -80q-8 -40 -8 -176q0 -120 8 -144v-48q0 -8 16 -20t32 -12q40 0 52 -24t-12 -48q-32 -16 -56 -16q-40 0 -80 48q-24 64 -28 120t-4 168v152q-40 -48 -72 -120q-56 -136 -80 -136q0 -8 -8 -16t-8 -16q0 -24 -48 -80t-72 -56q-104 0 -104 240 q0 56 -4 84t-12 12q0 -32 -32 -32t-32 -16q-16 -48 -56 -120q-80 -80 -80 -144q-8 -32 -24 -52t-32 -20q-40 0 -32 72q0 16 12 32t12 32t16 32l32 256q0 56 16 84t32 12q16 0 16 -48v-104l16 -64l16 32q88 112 88 120q48 48 80 48q48 0 56 -96v-136v-88l16 -48q16 0 80 88 t88 144q80 112 152 152q16 0 16 32v0v0z" />
<glyph unicode="n" horiz-adv-x="744" d="M144 760q0 16 56 16q72 0 48 -152v-80q16 0 32 16q0 24 60 92t108 108q32 16 88 16q24 -8 28 -40t4 -112q-8 -40 -8 -88q0 -40 12 -68t12 -44q16 -32 40 -48t56 -16h88v-8q0 -32 -16 -64t-32 -32q-56 0 -108 32t-76 72q-40 48 -48 76t-8 124q0 136 -16 136t-92 -80 t-108 -144q-24 -40 -88 -184q-8 -48 -28 -72t-36 -24q-24 0 -12 68t44 196q80 304 56 304q-40 0 -40 -16t-8 -20t-8 4v32v0v0z" />
<glyph unicode="o" horiz-adv-x="696" d="M272 760q112 48 160 48q64 0 112 -80q40 -80 40 -176q0 -128 -60 -236t-148 -124h-32q-48 0 -100 28t-92 68q-40 32 -68 100t-28 116q0 64 72 148t144 108v0v0zM512 664q-40 48 -80 48q-56 0 -128 -32l-80 -56q-24 0 -56 -32t-48 -64q0 -64 76 -168t124 -104 q88 0 168 168q48 72 48 144q0 48 -24 96v0v0z" />
<glyph unicode="p" horiz-adv-x="696" d="M208 888q16 16 36 12t28 -28q8 -32 24 -32t48 16q72 32 160 -16t104 -120q0 -96 -24 -156t-96 -148q-48 -64 -120 -108t-128 -44h-32t-36 -76t-36 -212q-8 -136 -24 -172t-40 -12q-16 0 -16 104l64 456q0 8 32 184l56 352v0v0zM512 752q-24 32 -104 32q-144 0 -168 -152 q0 -40 -8 -72t-8 -64q-8 -32 -8 -96q0 -56 8 -72q32 -24 132 56t156 168q24 72 24 120t-24 80v0v0z" />
<glyph unicode="q" horiz-adv-x="664" d="M264 832q40 40 72 40q48 0 72 -40q80 -32 96 -32h40q-8 -40 -28 -112t-44 -96q0 -8 -8 -24t-8 -40q0 -72 -32 -136q-32 -80 -56 -304q0 -80 16 -112l24 -72l96 120l88 120q48 0 -144 -320q-48 -64 -72 -64q-32 0 -40 80q0 72 -24 136q0 96 16 216l24 184q8 8 0 4t-20 -12 t-20 -24q-96 -88 -160 -88q-72 0 -96 136q0 104 32 168q32 80 88 164t88 108v0v0zM384 776q-16 24 -48 24t-88 -72t-104 -168q-24 -56 -24 -120q0 -112 56 -112q24 0 92 88t116 160q32 88 32 136q0 40 -32 64v0v0z" />
<glyph unicode="r" horiz-adv-x="616" d="M432 856q56 40 120 40q40 0 80 -24q24 -24 24 -32t-40 -40l-32 -16l-40 16q-24 32 -40 32t-40 -32q-40 -32 -88 -84t-48 -68l-32 -80q-48 -96 -48 -136q-16 -48 -32 -196t-56 -172q-32 24 -32 96t16 144t16 80q24 120 24 248q0 88 -8 104q-24 24 -48 20t-16 -36l8 -16 q0 -8 -8 -8q-24 0 -56 56l-24 48q0 40 96 40q32 0 84 -40t52 -64t8 -24t56 56q32 56 104 88v0v0z" />
<glyph unicode="s" horiz-adv-x="544" d="M176 848q16 8 72 8q64 0 120 -8t80 -16q16 0 12 -12t-12 -20q0 -24 -24 -24l-80 8q-40 8 -96 8t-56 -24t80 -120q112 -96 148 -156t20 -116q0 -48 -16 -64t-56 -32q-32 -32 -136 -72l-64 -16l-80 88q-48 48 -64 72t8 24l24 8q32 0 96 -72q24 -24 48 -24t120 40 q40 16 40 56q0 72 -128 200q-152 152 -128 200q8 16 28 40t44 24v0v0z" />
<glyph unicode="t" horiz-adv-x="672" d="M392 1000q24 64 64 64q32 0 16 -48q0 -48 -32 -80q0 -8 -32 -104q-16 -80 0 -80q32 0 96 32q120 56 136 16v-8q0 -16 -44 -44t-108 -52l-136 -32l-32 -104q-32 -128 -32 -240t48 -112q40 0 88 20t48 36t32 32q32 0 32 -16q0 -24 -64 -72q-48 -48 -112 -64t-88 16 q-48 40 -48 160q0 32 16 144l32 152q0 32 -120 16q-48 0 -72 4t-24 28q0 16 36 24t132 24q64 16 76 28t36 92l56 168v0v0z" />
<glyph unicode="u" horiz-adv-x="824" d="M672 816q48 0 48 -48l-32 -136q-16 -112 -16 -136q0 -80 48 -152q32 -16 40 -28t-8 -36q-16 -40 -64 -16q-104 72 -104 200v80l-32 -48q-32 -64 -48 -64q-16 -16 -32 -72q-48 -64 -128 -140t-112 -76h-24q-48 0 -48 72q0 48 24 144l24 192q24 112 24 160q-16 40 16 40h56 q0 -88 16 -104q8 -16 8 -28t-8 -20q-32 -32 -56 -152l-32 -152v-48l16 -8q8 0 88 72q144 176 280 400l56 104v0v0z" />
<glyph unicode="v" horiz-adv-x="728" d="M104 776q0 8 12 4t20 -4q32 -8 56 -88t48 -216q0 -72 16 -152q32 0 80 104q240 368 256 368q32 0 32 -48q0 -56 -48 -72q-16 0 -28 -8t-12 -24q0 -32 -48 -80l-120 -224q-104 -184 -128 -184q-16 0 -48 116t-40 220q-16 144 -32 168q-16 32 -16 72v48v0v0z" />
<glyph unicode="w" horiz-adv-x="944" d="M472 776q0 24 36 32t52 -16q0 -144 44 -316t68 -156l72 144t48 112l32 80q24 88 48 88t24 -24q0 -40 -56 -184q-112 -384 -200 -352q-24 32 -52 108t-52 164q-40 168 -64 168l-80 -152q-56 -112 -120 -204t-104 -132q-32 0 -48 16q-8 8 -8 64l8 208q16 160 16 184 q0 64 -16 80v24q0 40 24 40q32 0 56 -48q64 -40 40 -64q-32 -32 -56 -272l-16 -96l32 32q40 16 56 48q16 24 36 72t60 112q96 184 120 184v56v0v0z" />
<glyph unicode="x" horiz-adv-x="664" d="M496 800q40 40 68 48t28 -32q-16 -48 -48 -96q-40 -56 -88 -116t-48 -68q0 -16 20 -36l36 -36q32 -32 48 -64q0 -8 32 -56q32 -32 36 -52t-20 -44q-16 -16 -24 -16q-16 0 -72 80q-8 16 -56 104l-48 32l-16 -32q-32 -56 -72 -88q-32 -16 -48 -48q0 -16 -88 -108t-96 -92 q-16 0 -32 16l-8 8q0 24 72 112q64 56 152 176t88 144q0 16 -40 96q-48 56 -80 136l-48 64l48 -16q32 0 32 -16q8 0 36 -28l52 -52q32 -56 64 -88q24 0 48 48q16 40 40 68t32 52v0v0z" />
<glyph unicode="y" horiz-adv-x="736" d="M568 768q56 104 80 104t24 -48t-32 -104q-40 -56 -40 -120q0 -48 -8 -76t-8 -44q-16 -16 -32 -168q0 -88 -24 -176t-40 -160q-24 -136 -48 -188t-56 -52q-40 0 -120 56q-152 128 -128 168l16 8q8 0 64 -40q56 -56 108 -84t60 -4l72 256q64 384 64 432q-48 -16 -88 -64 q-96 -96 -136 -96q-32 0 -64 32q-24 24 -28 64t-4 120t8 124t8 60v48q16 0 32 -16t16 -168q0 -72 24 -168l8 -8q16 0 120 72q16 16 72 84t80 156v0v0z" />
<glyph unicode="z" horiz-adv-x="880" d="M672 904q88 0 88 -24t-40 -88t-112 -128l-232 -240l-168 -168h64h232q144 0 224 -4t88 -12t-8 -32q-32 -32 -352 -32q-168 0 -264 8t-104 8q0 40 216 256q136 136 236 252t100 132t-32 16q-8 0 -88 -16q-72 -8 -152 -8q-64 0 -80 24q-8 8 -8 24q0 24 128 24l264 8v0v0z " />
<glyph unicode="{" d="M752 1392q32 0 32 -24l-16 -80q-16 -32 -16 -264q16 -112 16 -232q0 -40 -32 -100t-72 -100q-8 -16 -8 -28t8 -20q56 -40 72 -112t16 -248q0 -200 -4 -276t-28 -76q0 -16 -24 -16q-48 0 -48 392v224l-56 56l-48 32t-40 24l-16 32q0 40 88 72q72 40 72 56q16 0 16 304 q0 216 16 296t72 88v0v0v0z" />
<glyph unicode="|" d="M528 1208q16 16 56 24t48 -8q16 -16 4 -36t-20 -28q-16 -48 -16 -112l16 -264q8 -160 8 -424q0 -520 -48 -520q-56 0 -56 128q0 72 8 120v448q-16 320 -16 448q0 192 16 224v0v0v0z" />
<glyph unicode="}" d="M568 1416q40 0 48 -60t8 -292q0 -240 8 -304t48 -48q16 16 88 16q24 0 28 -12t4 -44q0 -16 -16 -48t-40 -56q-24 -40 -32 -104t-16 -184q-16 -208 -36 -308t-76 -132q-40 -48 -64 -24q-40 16 -40 40q0 16 40 56q88 56 88 352q0 232 16 264q24 64 20 88t-36 24 q-40 0 -56 88t-16 352q0 320 16 336h16v0v0z" />
<glyph unicode="~" horiz-adv-x="1384" d="M1032 688q8 0 8 -16q0 -32 -24 -68t-40 -36t-32 -16q0 -16 -48 -36t-80 -20q-16 0 -48 16t-40 40q-40 40 -112 40q-96 0 -104 -80q0 -24 -24 -32t-24 16q-8 16 -8 40q0 64 72 120q48 24 88 24q48 0 128 -40q56 -56 104 -56q40 0 96 56v0l88 48v0v0z" />
<glyph horiz-adv-x="2048" />
<glyph unicode="&#xa1;" d="M616 96q-16 24 -24 144t-16 192q0 280 24 320q8 16 16 16t16 -16q16 -16 28 -88t12 -144q0 -96 8 -168t8 -120q24 -112 0 -136q-32 -32 -52 -32t-20 32v0v0v0zM560 944q0 56 40 144q8 32 24 32t40 -36t24 -84q0 -40 -48 -64t-80 8v0v0v0z" />
<glyph unicode="&#xa4;" horiz-adv-x="2048" d="M1064 1040q-8 24 -104 24q-80 0 -152 -24q-160 -104 -208 -288q-32 -96 -32 -112q0 -8 32 -136q32 -144 184 -240t312 -80q32 8 72 16t56 16q88 40 148 156t76 260q0 88 -64 220t-128 164q-40 32 -64 40t-24 -16q0 -32 -24 -52t-48 -20v16q0 16 -12 36t-20 20v0v0v0z M1504 1272q0 8 20 20t36 12q56 0 32 -56q-16 -32 -60 -84t-84 -76q-80 -24 -32 -88q24 -16 68 -116t60 -132q8 -64 -20 -204t-52 -172q-24 -16 -24 -48q0 -16 -8 -28t-24 -12q-48 -48 0 -48h8q40 0 152 -112q72 -72 88 -100t0 -60q-24 -64 -56 -16l-120 144l-128 120 l-72 -48q-104 -88 -256 -88q-96 0 -168 32l-104 40l-72 -40q-24 -8 -64 -48t-64 -56q-32 -64 -68 -96t-52 -16q-24 24 -24 40q0 48 112 176q72 72 96 104t8 56q-64 64 -88 144q-64 128 -64 216q0 80 64 208q40 72 56 128q-32 8 -132 92t-100 100q0 32 32 32q56 0 144 -80 l128 -96l32 56q144 96 360 96q88 0 160 -24l88 -32l88 64q88 72 104 96v0v0v0z" />
<glyph unicode="&#xa7;" horiz-adv-x="2048" d="M936 808q0 16 -40 -48q-24 -24 -32 -60t-8 -84q0 -56 4 -84t36 -44q24 0 44 8t44 48q32 32 32 16t24 0q24 0 72 84t48 116q0 16 -48 16q-112 0 -168 -40q-8 -8 -12 -4t-4 28v0l8 48v0v0zM912 1256q40 8 104 8t112 -24q48 -32 48 -64q0 -24 -24 -32t-64 8q-16 0 -20 8 t4 24l8 8q0 8 -16 8q-40 0 -152 -32q-56 -32 -92 -88t-36 -112q0 -24 60 -52t84 -20q16 16 40 4t32 -20q80 -32 128 -32q56 0 80 -4t24 -36q16 -24 -28 -128t-100 -168l-32 -56l128 -40l120 -16v-72q0 -64 -64 -172t-128 -148q-16 -8 -48 -32t-64 -24t-72 8q-88 0 -120 16 t-88 88q-40 72 -40 100t56 -12q56 -56 88 -72q48 -56 128 -56q64 0 104 40q56 40 108 120t52 112q0 24 -44 36t-172 36q-144 40 -192 76t-56 132q0 64 8 104t32 80q24 64 0 88q-40 16 -56 32q-56 32 -56 104q0 80 64 156t152 116v0v0v0z" />
<glyph unicode="&#xa8;" horiz-adv-x="2048" d="M800 1248q-56 -56 -136 -56q-72 0 -120 56t-48 136q0 64 48 116t120 52q80 0 136 -48t56 -120q0 -80 -56 -136zM1504 1248q-48 -56 -120 -56q-80 0 -136 56t-56 136q0 64 60 116t132 52q80 0 124 -48t44 -120q0 -80 -48 -136z" />
<glyph unicode="&#xab;" d="M584 1272q16 48 48 48t32 -24t-48 -136l-160 -376l-104 -256l64 -112l168 -256l120 -176q24 -48 40 -48t0 -56q-24 -56 -40 -56t-56 80q-80 128 -188 288t-172 248q-32 48 -36 64t20 48q40 64 184 432l88 200l40 88v0v0v0zM1000 1224q40 24 48 0q8 -16 -8 -48t-56 -100 t-80 -140q-128 -216 -164 -288t-28 -120q24 -80 104 -168q88 -128 88 -136q0 -16 48 -80q64 -80 92 -132t20 -84q0 -48 -32 -48q-24 0 -64 72l-168 264q-72 112 -116 160t-76 48q-40 0 -48 12t0 60q0 72 40 96q80 80 128 192q8 24 72 136q72 80 112 184q48 96 88 120v0v0v0z " />
<glyph unicode="&#xad;" d="M848 704q104 32 120 28t0 -44q0 -48 -12 -60t-60 -12q-32 0 -68 -16t-68 -16q-64 -8 -168 -28t-136 -16t-32 20q-24 24 -24 40q0 40 176 48q72 8 272 56v0v0v0z" />
<glyph unicode="&#xb0;" horiz-adv-x="816" d="M440 1136q-40 24 -52 24t-52 -24q-32 -32 -32 -72q0 -56 48 -56h24q32 0 68 24t36 48q0 56 -40 56v0v0v0zM392 1240q48 0 88 -16l88 -32l-16 -72q0 -104 -84 -164t-172 -36q-72 24 -72 128q0 64 36 124t92 68h40v0v0z" />
<glyph unicode="&#xb1;" horiz-adv-x="2048" d="M1208 200q-32 0 -48 -4t8 -20q56 0 88 24h-48v0v0zM1120 176q0 16 -72 16q-88 0 -144 -16h72h144v0v0v0zM992 1016q0 120 16 120q40 0 72 -160q0 -48 16 -88q72 0 128 16q96 32 184 32q72 0 80 -32l8 -16q0 -8 -36 -16t-60 -16q-72 0 -192 -40l-128 -32l-16 -216 q0 -120 -8 -188t-8 -92l-16 -56h192q104 16 248 16q48 0 60 -12t-4 -60q-32 -32 -272 -32l-224 -8q-64 -8 -160 -8l-200 -16q-80 0 -104 32l-8 16q0 32 216 56q96 16 144 16q-16 16 -16 32q0 40 16 24q32 0 44 64t12 256l16 192h-192q-200 0 -216 16q-24 32 40 52t192 20 h176v128v0v0v0z" />
<glyph unicode="&#xb7;" d="M568 664q8 40 24 48t64 -8q48 0 88 -40q32 -24 32 -40l-32 -64q-48 -64 -104 -64q-32 0 -72 24q-32 48 -32 64t32 80v0v0v0z" />
<glyph unicode="&#xbb;" d="M680 1272q0 8 8 8t32 -8q16 0 24 -12t8 -28t96 -160l152 -248l128 -176l-40 -72q-40 -80 -48 -88l-72 -104l-168 -240l-136 -192q-56 -56 -56 -72q-16 -16 -32 -16q-24 0 -48 24t-24 64q0 48 20 76t36 -4q0 -48 232 248q88 160 160 248q56 88 56 120q0 40 -44 112 t-124 176q-112 168 -148 240t-12 104v0v0v0zM328 1128q16 32 32 32q40 0 128 -136q40 -120 192 -304q32 -48 60 -92t28 -64t-16 -44l-32 -48q-72 -72 -112 -128l-336 -408l-8 -8q-16 0 -40 20t-24 44q0 16 104 136t168 184q8 0 36 44t52 76q24 24 56 60t32 52q24 0 -16 72 t-128 208q-104 144 -140 208t-36 96v0v0v0z" />
<glyph unicode="&#xbf;" d="M592 16l-80 8q-56 16 -80 76t-8 124q16 88 64 176t56 104l72 144q32 120 88 88q24 -24 24 -64q0 -64 -112 -240q-48 -64 -84 -140t-36 -124q0 -72 96 -72q32 0 96 16q48 24 64 36t24 60l40 64q24 0 36 -36t12 -68q-8 -40 -64 -84t-112 -60v0l-96 -8v0v0zM760 1024 l-16 -20t-40 4q-16 16 -64 16q-72 0 -72 48q0 96 104 96q48 0 72 -72q0 -40 16 -72v0v0v0z" />
<glyph unicode="&#xd7;" horiz-adv-x="2048" d="M1240 952q56 72 84 84t60 -28q0 -32 -72 -104q-216 -272 -216 -304q0 -24 156 -164t236 -188l-56 -96q-8 0 -192 184q-208 192 -216 192q-16 -8 -44 -52t-68 -92l-104 -160q-72 -96 -104 -96t-32 80q0 48 12 80t20 -8h40q40 48 124 172t84 148q0 16 -84 108t-148 140 q-88 64 -100 88t28 56q24 8 40 8t32 -24q16 -16 56 -64t104 -120l160 -120l56 88q32 32 76 96t68 96v0v0v0z" />
<glyph unicode="&#xe0;" horiz-adv-x="1024" d="M400 1192q0 8 8 12t24 4q32 0 88 -96q32 -104 80 -152q32 -40 32 -96q0 -48 -56 16t-116 172t-60 140v0v0zM472 808q48 24 72 24q32 0 72 -40q32 -48 64 -16q8 8 24 8t16 -32t-24 -128q-16 -48 -16 -128t32 -160q24 -40 32 -40q16 0 56 88l32 64l8 -16q0 -32 -32 -96 q-16 -88 -32 -112t-48 -24t-60 56t-44 144l-8 56l-32 -56q-32 -96 -120 -172t-152 -76q-48 0 -76 44t-28 124q0 72 20 164t52 140q40 64 92 120t100 64v0v0zM528 768q-32 0 -76 -36t-100 -92q-32 -64 -64 -188t-8 -164q24 -72 56 -72t136 104q80 120 144 264q8 56 0 88 q-16 0 -16 32q0 16 -32 48l-40 16v0v0z" />
<glyph unicode="&#xe1;" horiz-adv-x="864" d="M648 1208q16 16 40 16q16 0 16 -16q0 -32 -56 -88q-16 -16 -56 -64t-64 -88q-48 -64 -64 -64t-16 32q0 24 76 132t124 140v0v0zM416 808q48 24 72 24q32 0 72 -40q32 -48 64 -16q8 8 24 8t16 -32t-24 -128q-16 -48 -16 -128t32 -160q24 -40 32 -40q16 0 56 88l32 64 l8 -16q0 -32 -32 -96q-16 -88 -32 -112t-48 -24t-60 56t-44 144l-8 56l-32 -56q-32 -96 -120 -172t-152 -76q-48 0 -76 44t-28 124q0 72 20 164t52 140q40 64 92 120t100 64v0v0zM472 768q-32 0 -76 -36t-100 -92q-32 -64 -64 -188t-8 -164q24 -72 56 -72t136 104 q80 120 144 264q8 56 0 88q-16 0 -16 32q0 16 -32 48l-40 16v0v0z" />
<glyph unicode="&#xe8;" horiz-adv-x="1024" d="M400 1248q24 0 76 -36t100 -100q96 -96 96 -104q0 -40 -72 12t-144 128t-64 100h8v0v0zM552 872q16 8 40 8q88 0 144 -48q24 -24 24 -64t-24 -64q-48 -48 -120 -72l-104 -64l-112 -32l-104 -16v-72l-8 -40q0 -24 56 -96q64 -80 104 -80h24q40 0 84 28t76 68q40 48 56 48 q8 0 8 -16q0 -24 -48 -96q-64 -112 -160 -112q-64 0 -144 64q-64 48 -92 104t-28 136t8 128q0 16 4 44t12 32t16 -12q8 -8 20 -4t28 20q32 64 240 208v0v0zM664 800q-16 16 -40 16q-40 0 -176 -112q-48 -48 -76 -80t-12 -32q32 0 172 68t148 92q0 32 -16 48v0v0z" />
<glyph unicode="&#xe9;" horiz-adv-x="1024" d="M688 1104q64 40 108 44t44 -20q0 -40 -16 -40q-16 -8 -56 -36t-80 -44q-72 -64 -120 -84t-48 12t168 168v0v0zM632 872q16 8 40 8q88 0 144 -48q24 -24 24 -64t-24 -64q-48 -48 -120 -72l-104 -64l-112 -32l-104 -16v-72l-8 -40q0 -24 56 -96q64 -80 104 -80h24 q40 0 84 28t76 68q40 48 56 48q8 0 8 -16q0 -24 -48 -96q-64 -112 -160 -112q-64 0 -144 64q-64 48 -92 104t-28 136t8 128q0 16 4 44t12 32t16 -12q8 -8 20 -4t28 20q32 64 240 208v0v0zM744 800q-16 16 -40 16q-40 0 -176 -112q-48 -48 -76 -80t-12 -32q32 0 172 68 t148 92q0 32 -16 48v0v0z" />
<glyph unicode="&#xec;" horiz-adv-x="1024" d="M424 1136q16 24 32 24t96 -64q96 -80 96 -112q0 -40 -60 -8t-120 88t-44 72v0v0zM664 816q16 0 16 -24q0 -32 -32 -96q-8 -24 -32 -76t-24 -76q0 -40 -48 -120q-16 -160 0 -160q16 16 56 84t64 132q8 32 28 32t20 -24q0 -32 -24 -72q-56 -144 -104 -212t-88 -44l-8 120 q-8 24 -8 72q0 64 56 288l8 40l-48 -40q-96 -56 -128 -56t-36 28t20 28t192 120q16 8 36 24t36 16l48 16v0v0z" />
<glyph unicode="&#xed;" horiz-adv-x="1024" d="M680 1176q8 8 24 16t16 16q24 0 24 -16q0 -48 -112 -152q-40 -40 -92 -96t-60 -72t-20 -20t-28 4q-16 16 -16 48q0 16 48 72t120 112q24 16 56 52t40 36v0v0zM664 808q16 0 16 -24q0 -32 -32 -96q-8 -24 -32 -76t-24 -76q0 -40 -48 -120q-16 -160 0 -160q16 16 56 84 t64 132q8 32 28 32t20 -24q0 -32 -24 -72q-56 -144 -104 -212t-88 -44l-8 120q-8 24 -8 72q0 64 56 288l8 40l-48 -40q-96 -56 -128 -56t-36 28t20 28t192 120q16 8 36 24t36 16l48 16v0v0z" />
<glyph unicode="&#xf2;" horiz-adv-x="1024" d="M400 1232q0 24 16 24q32 0 152 -184q56 -112 56 -168t-56 8t-112 172t-56 148v0v0zM584 712q64 32 104 32q72 0 112 -48q40 -24 48 -44t8 -84t-56 -152q-48 -96 -128 -144t-168 -48q-120 0 -208 88q-40 40 -40 96q0 64 56 176q136 120 136 80q0 -16 12 -12t20 28 q0 32 40 32h64v0v0zM768 632q-24 32 -88 32t-160 -48q-56 -16 -120 -48q-16 0 -16 -24q0 -32 -32 -32q-32 -16 -32 -64q0 -40 32 -88q64 -56 152 -56q168 0 248 176q32 64 36 88t-20 64v0v0z" />
<glyph unicode="&#xf3;" horiz-adv-x="1024" d="M608 1088q80 72 132 100t36 4q0 -24 -132 -160t-140 -128q-24 16 -24 24q0 32 128 160v0v0zM408 776q32 16 80 16q72 -16 136 -16q120 -8 120 -168q0 -72 -16 -112q-32 -80 -104 -180t-120 -124q-64 -24 -152 48t-112 184q-24 56 -24 80t24 56q72 160 168 216v0v0z M656 680q-24 24 -80 24q-48 0 -120 -24q-56 -16 -84 -36t-36 -68q-24 -56 -24 -80q0 -40 8 -72q16 -40 68 -104t84 -64q16 0 120 136q96 96 96 208q0 48 -32 80v0v0z" />
<glyph unicode="&#xf7;" horiz-adv-x="2048" d="M944 1056q24 16 60 12t36 -28q8 -16 16 -36t16 -20v-16q0 -32 -20 -68t-36 -36q-32 0 -32 16t-8 24t-8 24q-16 0 -24 16t-16 24q0 56 16 32h16h-16v56v0v0v0zM1480 680q24 -8 24 -32q0 -40 -40 -56q-16 -16 -448 -16q-320 0 -400 16t-40 56q32 16 464 16q408 0 408 16h32 v0v0zM944 360q16 24 48 24t64 -24t32 -48v-72q8 -8 4 -36t-4 -36q-24 -32 -32 -28t-40 44t-60 100t-12 76v0v0v0z" />
<glyph unicode="&#xf9;" horiz-adv-x="1024" d="M432 1272q8 0 52 -48t52 -72v-16q16 0 80 -96q64 -72 64 -104q0 -16 -8 -16q-40 0 -152 136q-72 88 -104 140t-16 76h32v0v0zM704 768q24 48 48 48t24 -32t-24 -152q-24 -80 -24 -176q0 -88 24 -160q8 -32 24 -36t48 20q72 48 32 -32q-32 -88 -104 -88q-72 24 -96 240 v112q-40 -32 -56 -80q-32 -32 -64 -88q-16 0 -16 -16q0 -32 -120 -112q-96 -104 -152 -104q-24 0 -32 20t-16 28q0 48 12 104t20 120q32 96 32 216q8 80 16 108t40 28q24 0 24 -32q0 -48 -8 -88q0 -136 -32 -232q-24 -72 -32 -128t8 -56q40 0 152 144q104 104 180 204 t76 132q0 56 16 88v0v0z" />
<glyph unicode="&#xfa;" horiz-adv-x="1024" d="M688 1080q120 120 152 120q16 0 16 -8t-64 -80l-64 -80q0 -8 -28 -36t-44 -52q-24 -32 -36 -36t-28 20q-16 16 -16 24q0 32 48 72t64 56v0v0zM744 816q16 24 32 20t16 -44l-32 -144q-32 -88 -32 -224q16 -120 36 -152t44 40q16 24 36 40t28 8l8 -8q0 -32 -36 -104 t-52 -72q-8 -8 -24 -8q-88 0 -112 192q-16 48 -16 80q-24 0 -72 -40t-48 -56q0 -24 -60 -84t-108 -68q-24 -24 -40 -24t-40 24t-24 80q0 80 56 256l32 200q0 48 20 52t36 -20q16 -16 16 -64q0 -24 -16 -152q-64 -184 -72 -236t16 -52q56 0 184 160t168 264q32 104 56 136v0 v0z" />
<glyph unicode="&#xfc;" horiz-adv-x="1024" d="M792 1048q0 40 16 40t48 -40q24 -24 24 -44t-8 -44t-32 -24q-16 0 -32 32t-16 80v0v0zM368 1048q24 48 56 -16q24 -56 24 -80t-24 -24q-32 0 -52 48t-4 72v0v0zM720 744q24 72 72 72q24 0 24 -16q0 -24 -56 -192q-24 -72 -36 -128t-4 -104q0 -72 20 -104t36 16 q24 56 64 56v-8q-8 -32 -28 -84t-36 -60q-40 -24 -60 -20t-44 36t-28 80t-4 120v72l-104 -136q-152 -184 -216 -184q-80 0 -80 120q0 88 48 232q32 96 32 152q8 48 28 72t36 8q8 -8 8 -48q0 -96 -40 -200q-40 -160 -40 -200q0 -48 24 -48t88 64q72 72 168 196t96 140 q0 48 32 96v0v0z" />
<glyph unicode="&#x2000;" horiz-adv-x="916" vert-adv-y="0" />
<glyph unicode="&#x2001;" horiz-adv-x="1832" vert-adv-y="0" />
<glyph unicode="&#x2002;" horiz-adv-x="916" vert-adv-y="0" />
<glyph unicode="&#x2003;" horiz-adv-x="1832" vert-adv-y="0" />
<glyph unicode="&#x2004;" horiz-adv-x="610" vert-adv-y="0" />
<glyph unicode="&#x2005;" horiz-adv-x="458" vert-adv-y="0" />
<glyph unicode="&#x2006;" horiz-adv-x="305" vert-adv-y="0" />
<glyph unicode="&#x2007;" horiz-adv-x="305" vert-adv-y="0" />
<glyph unicode="&#x2008;" horiz-adv-x="229" vert-adv-y="0" />
<glyph unicode="&#x2009;" horiz-adv-x="366" vert-adv-y="0" />
<glyph unicode="&#x200a;" horiz-adv-x="101" vert-adv-y="0" />
<glyph unicode="&#x2010;" d="M848 704q104 32 120 28t0 -44q0 -48 -12 -60t-60 -12q-32 0 -68 -16t-68 -16q-64 -8 -168 -28t-136 -16t-32 20q-24 24 -24 40q0 40 176 48q72 8 272 56v0v0v0z" />
<glyph unicode="&#x2011;" d="M848 704q104 32 120 28t0 -44q0 -48 -12 -60t-60 -12q-32 0 -68 -16t-68 -16q-64 -8 -168 -28t-136 -16t-32 20q-24 24 -24 40q0 40 176 48q72 8 272 56v0v0v0z" />
<glyph unicode="&#x2012;" d="M848 704q104 32 120 28t0 -44q0 -48 -12 -60t-60 -12q-32 0 -68 -16t-68 -16q-64 -8 -168 -28t-136 -16t-32 20q-24 24 -24 40q0 40 176 48q72 8 272 56v0v0v0z" />
<glyph unicode="&#x2013;" d="M744 704q104 32 120 28t0 -44q0 -48 -12 -60t-60 -12q-32 0 -68 -16t-68 -16q-64 -8 -168 -28t-136 -16t-32 20q-24 24 -24 40q0 40 176 48q72 8 272 56v0v0v0z" />
<glyph unicode="&#x2014;" d="M808 704q104 32 120 28t0 -44q0 -48 -12 -60t-60 -12q-32 0 -68 -16t-68 -16q-64 -8 -168 -28t-136 -16t-32 20q-24 24 -24 40q0 40 176 48q72 8 272 56v0v0v0z" />
<glyph unicode="&#x2018;" d="M760 1472q128 80 104 16l-88 -72q-48 -24 -60 -44t-12 -76q0 -48 -12 -60t-32 -24t-28 -20l-88 -40l-32 40q-24 24 -32 44t-8 44q8 56 64 108t96 52l128 32v0v0v0z" />
<glyph unicode="&#x2019;" d="M688 1552q88 0 88 -136q0 -40 -20 -72t-68 -72q-64 -72 -120 -72q-64 0 -64 32t64 72q32 24 40 36t-8 36q-24 48 -24 96t40 64v0l72 16v0v0z" />
<glyph unicode="&#x201a;" d="M568 168q24 32 72 32q64 -8 84 -44t4 -100q-24 -120 -88 -176t-120 -16l-8 16q0 16 40 56q64 48 64 80t-24 64t-24 88v0v0v0z" />
<glyph unicode="&#x201c;" d="M584 1568q48 40 96 40q24 0 24 -16t-48 -56q-56 -48 -80 -96t8 -80q16 -16 16 -40q0 -8 -16 -72q-56 -72 -72 -72q-40 0 -76 36t-36 76q0 56 60 152t124 128v0v0v0zM880 1496q8 8 40 8q16 0 36 -12t20 -28t-24 -16q-16 0 -24 -8t-24 -8q-24 -24 -28 -32t28 -24 q16 -16 20 -48t-20 -40q0 -16 -12 -28t-12 -28q0 -8 -32 -56q-16 -8 -40 -8q-56 0 -104 48q-8 8 -8 32q0 40 8 72q8 56 68 108t108 68v0v0v0z" />
<glyph unicode="&#x201d;" d="M752 1608q40 40 96 40q40 0 80 -24q48 -24 48 -112q0 -56 -32 -120q-152 -232 -232 -232q-48 0 -48 40q0 24 32 56q32 16 64 44t40 60l56 72l-56 16q-24 0 -44 20t-20 52l-16 32q0 16 32 56v0v0v0zM392 1608q64 16 80 16q40 0 104 -48l32 -72l-56 -88q-56 -72 -112 -128 t-80 -56q-32 0 -32 24q0 32 48 88q8 16 24 44t12 36t-20 8q-56 40 -56 96t56 80v0v0v0z" />
<glyph unicode="&#x201e;" d="M688 200q40 40 88 40q40 0 88 -24q48 -32 48 -112q0 -72 -32 -112q-152 -232 -224 -232q-56 0 -56 32q0 16 40 56q64 48 104 112l48 64l-56 24q-56 16 -72 64l-8 32q0 24 32 56v0v0v0zM336 208q48 16 72 16q56 0 96 -64l40 -64l-56 -88q-48 -72 -100 -124t-84 -52t-32 24 q0 40 40 88q24 40 32 60t-8 28q-56 40 -56 88q0 64 56 88v0v0v0z" />
<glyph unicode="&#x2022;" d="M528 656q16 40 32 44t64 -4q24 0 52 -12t44 -28q24 -24 24 -40l-40 -56q-40 -64 -104 -64q-32 0 -72 24q-24 40 -24 56q0 32 24 80v0v0v0z" />
<glyph unicode="&#x2026;" d="M1008 136q32 32 48 32t24 -32q0 -32 40 -32q24 -16 32 -68t-16 -60q-40 0 -72 16q-40 32 -60 76t4 68v0v0v0zM120 104q0 16 40 32q16 0 72 -76t48 -84t-32 -8q-32 0 -128 24q-32 24 -36 56t36 56v0v0v0zM512 104q16 24 40 24l64 -8q56 0 56 -40q0 -16 32 -48l40 -40 l-56 -16q-40 -16 -88 0q-24 16 -56 56t-32 72v0v0v0z" />
<glyph unicode="&#x202f;" horiz-adv-x="366" vert-adv-y="0" />
<glyph unicode="&#x2039;" d="M800 984q24 24 52 64t40 40t36 -16q32 0 0 -56q-56 -64 -168 -180t-208 -196l-72 -48q0 -24 376 -248q24 -32 56 -56t48 -40t24 -20t8 4q0 40 24 40t48 -40q32 -64 0 -104q0 -16 -16 -40q-16 8 -40 24l-48 32l-144 104q-248 176 -320 216t-120 88q0 32 52 68t68 20v24 q-16 16 52 64t92 40v16v8q0 24 32 48t56 16v16q16 56 72 112v0v0v0z" />
<glyph unicode="&#x203a;" d="M368 1032q0 16 8 16t160 -88q184 -120 432 -216q56 -16 64 -28t-8 -36t-456 -496q-88 -88 -124 -108t-44 28q-8 24 36 76t60 36q8 -8 36 20t52 76l160 176q80 80 112 128l24 48q0 24 -64 56t-88 40q-104 48 -208 112t-136 96q-16 16 -20 32t4 32v0v0v0z" />
<glyph unicode="&#x205f;" horiz-adv-x="458" vert-adv-y="0" />
<glyph unicode="&#x20ac;" horiz-adv-x="1560" d="M1048 1088q40 -16 72 -16q64 -24 64 -48t-64 -24q-72 0 -196 -28t-212 -60q-104 -48 -144 -144q-8 -16 -16 -36t-16 -36v-248q0 -64 32 -144q80 -72 328 -72q128 0 280 24q32 0 32 -40q0 -72 -320 -72q-136 0 -200 24t-80 32q-96 40 -128 88t-32 144q-16 80 8 216t64 208 q48 136 408 200v0l120 32v0v0zM664 488q216 24 384 24q112 0 112 -8q0 -40 -60 -56t-220 -32q-224 -32 -376 -32l-128 -16q-32 0 -64 16q-40 16 -40 32q0 32 112 32q24 0 280 40v0v0v0zM648 680q200 32 400 32q96 0 96 -8q0 -40 -56 -60t-224 -36q-224 -32 -376 -32 q-64 -8 -136 -8q-40 0 -64 8q-32 8 -32 32q0 40 104 40q80 0 288 32v0v0v0z" />
<glyph unicode="&#x25fc;" horiz-adv-x="840" vert-adv-y="1680" d="M0 840h840v-840h-840v840z" />
</font>
</defs>
</svg>
